<svg viewBox="0 0 700 700" width="700" height="700" xmlns="http://www.w3.org/2000/svg">
  <defs>
    <linearGradient id="hc-gradient"  gradientUnits="userSpaceOnUse">
      <stop offset="0%" stop-color="#a71dff" />
      <stop offset="100%" stop-color="#00ffa4" />
    </linearGradient>
    <!-- <radialGradient id="ffflux-gradient" gradientUnits="userSpaceOnUse">
      <stop offset="0%" stop-color="hsl(315, 100%, 72%)"></stop>
      <stop offset="100%" stop-color="hsl(227, 100%, 50%)"></stop>
    </radialGradient> -->
    <filter id="ffflux-filter" x="-20%" y="-20%" width="140%" height="140%" filterUnits="objectBoundingBox" primitiveUnits="userSpaceOnUse" color-interpolation-filters="sRGB">
      <feTurbulence type="fractalNoise" baseFrequency="0.005 0.003" numOctaves="1" seed="2" stitchTiles="stitch" x="0%" y="0%" width="100%" height="100%" result="turbulence"></feTurbulence>
      <feGaussianBlur stdDeviation="20 0" x="0%" y="0%" width="100%" height="100%" in="turbulence" edgeMode="duplicate" result="blur"></feGaussianBlur>
      <feBlend mode="color-dodge" x="0%" y="0%" width="100%" height="100%" in="SourceGraphic" in2="blur" result="blend"></feBlend>
    </filter>
  </defs>

  <g fill="url(#hc-gradient)">
    <circle cx="100" cy="100" r="50"  />
    <circle cx="200" cy="100" r="50"  />
    <circle cx="300" cy="100" r="50"  />
    <circle cx="400" cy="100" r="50"  />
    <circle cx="500" cy="100" r="50"  />
    <circle cx="600" cy="100" r="50"  />
    
    <circle cx="100" cy="200" r="50"  />
    <circle cx="200" cy="200" r="50"  />
    <circle cx="300" cy="200" r="50"  />
    <circle cx="400" cy="200" r="50"  />
    <circle cx="500" cy="200" r="50"  />
    <circle cx="600" cy="200" r="50"  />
    
    <circle cx="100" cy="300" r="50"  />
    <circle cx="100" cy="300" r="50"  />
    <circle cx="200" cy="300" r="50"  />
    <circle cx="300" cy="300" r="50"  />
    <circle cx="400" cy="300" r="50"  />
    <circle cx="500" cy="300" r="50"  />
    <circle cx="600" cy="300" r="50"  />
    
    <circle cx="100" cy="400" r="50"  />
    <circle cx="100" cy="400" r="50"  />
    <circle cx="200" cy="400" r="50"  />
    <circle cx="300" cy="400" r="50"  />
    <circle cx="400" cy="400" r="50"  />
    <circle cx="500" cy="400" r="50"  />
    <circle cx="600" cy="400" r="50"  />
    
    <circle cx="100" cy="500" r="50"  />
    <circle cx="100" cy="500" r="50"  />
    <circle cx="200" cy="500" r="50"  />
    <circle cx="300" cy="500" r="50"  />
    <circle cx="400" cy="500" r="50"  />
    <circle cx="500" cy="500" r="50"  />
    <circle cx="600" cy="500" r="50"  />
    
  </g>
</svg>